<?xml version="1.0" standalone="no"?>
<!DOCTYPE svg PUBLIC "-//W3C//DTD SVG 1.1//EN" "http://www.w3.org/Graphics/SVG/1.1/DTD/svg11.dtd" >
<svg xmlns="http://www.w3.org/2000/svg">
<metadata></metadata>
<defs>
<font id="nanamiextralight_oblique" horiz-adv-x="1229" vert-adv-y="2048" >
<font-face units-per-em="2048" ascent="1520" descent="-528" />
<missing-glyph horiz-adv-x="594" />
<glyph unicode="&#xfb01;" horiz-adv-x="940" vert-adv-y="2458" d="M205 0l190 903h-157l24 113h158l43 205q22 101 93 159q68 54 155 54h145l-22 -113h-123q-108 0 -131 -110l-41 -195h282l-24 -113h-283l-190 -903h-119zM750 0l217 1024h121l-217 -1024h-121zM1000 1206q0 31 25 55q26 25 58 25q53 0 53 -53q0 -30 -26 -55 q-25 -25 -55 -25q-55 0 -55 53z" />
<glyph unicode="&#xfb02;" horiz-adv-x="948" vert-adv-y="2458" d="M205 0l190 903h-157l24 113h158l43 205q22 101 93 159q68 54 155 54h145l-22 -113h-123q-108 0 -131 -110l-41 -195h282l-24 -113h-283l-190 -903h-119zM746 0l303 1432h121l-303 -1432h-121z" />
<glyph horiz-adv-x="0" vert-adv-y="0" />
<glyph unicode="&#xd;" horiz-adv-x="594" vert-adv-y="2458" />
<glyph unicode=" " horiz-adv-x="594" vert-adv-y="2458" />
<glyph unicode="!" horiz-adv-x="295" vert-adv-y="2458" d="M88 47q0 32 26 57t60 25q56 0 56 -54q0 -31 -27 -57q-26 -26 -58 -26q-57 0 -57 55zM128 211l283 1325h125l-283 -1325h-125z" />
<glyph unicode="&#x22;" horiz-adv-x="539" vert-adv-y="2458" d="M293 940l127 596h104l-127 -596h-104zM541 940l127 596h104l-127 -596h-104z" />
<glyph unicode="#" horiz-adv-x="1315" vert-adv-y="2458" d="M162 465l14 74h314l139 397h-301l14 74h315l156 446h72l-154 -446h359l155 446h68l-152 -446h303l-14 -74h-315l-142 -397h303l-14 -74h-315l-160 -465h-75l163 465h-362l-160 -465l-72 -2l160 467h-299zM563 539h359l141 397h-360z" />
<glyph unicode="$" horiz-adv-x="928" vert-adv-y="2458" d="M119 240l125 18q44 -151 226 -151q150 0 267 126q98 105 98 229q0 95 -76 166q-52 48 -167 101q-159 75 -216 132q-79 81 -79 196q0 194 156 344q107 102 260 141l35 172h125l-35 -166q197 -20 264 -196l-125 -56q-48 131 -203 131q-114 0 -219 -85q-128 -103 -128 -248 q0 -72 43 -126q44 -56 198 -129q132 -63 187 -108q105 -89 105 -236q0 -209 -173 -368q-117 -106 -281 -137l-37 -178h-125l37 178q-130 18 -204 98q-57 67 -58 152z" />
<glyph unicode="%" horiz-adv-x="1792" vert-adv-y="2458" d="M307 1087q0 178 142 315q139 134 317 134q127 0 211 -81q85 -82 85 -211q0 -173 -143 -311q-139 -134 -314 -134q-131 0 -215 81q-83 81 -83 207zM414 1109q0 -97 67 -155q59 -51 146 -51q134 0 234 106q92 97 92 214q0 100 -68 158q-58 49 -147 49q-136 0 -236 -109 q-88 -94 -88 -212zM435 29l1151 1519l67 -47l-1148 -1515zM1052 286q0 177 142 315q138 134 317 134q128 0 211 -81q85 -82 85 -211q0 -173 -143 -311q-139 -134 -314 -134q-131 0 -215 81q-83 81 -83 207zM1159 308q0 -96 67 -155q59 -51 146 -51q133 0 234 106 q92 97 92 214q0 100 -68 159q-58 50 -147 50q-133 0 -234 -108q-90 -96 -90 -215z" />
<glyph unicode="&#x26;" horiz-adv-x="1430" vert-adv-y="2458" d="M152 331q0 186 152 343q93 97 273 200q-75 84 -99 125q-41 71 -41 149q0 158 125 280t291 122q118 0 192 -72q72 -69 72 -176q0 -266 -341 -448l262 -330l291 389l98 -59l-319 -422l270 -342l-96 -92l-254 324q-120 -174 -224 -248q-125 -90 -285 -90q-165 0 -266 98 q-101 97 -101 249zM280 359q0 -119 83 -191q71 -61 177 -61q193 0 341 204l73 103l-301 370q-373 -187 -373 -425zM563 1176q0 -64 42 -126q20 -31 51 -63q42 -42 44 -41q112 36 176 94q116 102 116 238q0 68 -50 110q-45 39 -114 39q-112 0 -194 -85q-71 -75 -71 -166z" />
<glyph unicode="'" horiz-adv-x="285" vert-adv-y="2458" d="M293 942l127 594h104l-127 -594h-104z" />
<glyph unicode="(" horiz-adv-x="479" vert-adv-y="2458" d="M127 166q0 73 17 151l172 805q68 320 346 508l68 -80q-117 -92 -181 -177q-79 -110 -114 -275l-160 -756q-19 -89 -19 -157q0 -149 121 -296l-102 -79q-148 149 -148 356z" />
<glyph unicode=")" horiz-adv-x="473" vert-adv-y="2458" d="M53 -111q118 93 181 179q79 109 114 274l160 756q20 96 20 158q0 148 -123 294l105 80q146 -149 146 -354q0 -73 -17 -154l-172 -805q-69 -319 -344 -507z" />
<glyph unicode="*" horiz-adv-x="885" vert-adv-y="2458" d="M276 1033l23 112l305 -24q-42 44 -135 136q-24 25 -60 62l103 82q22 -37 72 -116q54 -86 73 -117l41 307h115l-95 -309l248 235l64 -84l-275 -196l314 24l-23 -112l-305 24l194 -194l-102 -82l-145 233l-39 -309h-115l90 307l-248 -233l-63 84l168 118l106 76z" />
<glyph unicode="+" horiz-adv-x="1032" vert-adv-y="2458" d="M139 475l20 96h428l90 424h97l-90 -424h430l-21 -96h-430l-92 -428h-96l92 428h-428z" />
<glyph unicode="," horiz-adv-x="244" vert-adv-y="2458" d="M88 229l125 13l-74 -398l-41 -2z" />
<glyph unicode="-" horiz-adv-x="807" vert-adv-y="2458" d="M207 549l23 100h622l-22 -100h-623z" />
<glyph unicode="." horiz-adv-x="274" vert-adv-y="2458" d="M82 45q0 27 25 50q25 24 56 24q50 0 50 -50q0 -30 -22 -53q-24 -24 -55 -24q-54 0 -54 53z" />
<glyph unicode="/" horiz-adv-x="600" vert-adv-y="2458" d="M39 20l770 1526l82 -22l-772 -1530z" />
<glyph unicode="0" vert-adv-y="2458" d="M224 363q0 45 10 94l131 620q41 192 215 333q169 138 359 138q165 0 276 -108q109 -106 109 -266q0 -47 -10 -97l-132 -620q-40 -190 -211 -331q-171 -140 -362 -140q-164 0 -274 106q-111 108 -111 271zM350 391q0 -130 96 -213q79 -69 190 -69q137 0 259 98 q130 104 160 250l132 618q7 35 7 70q0 129 -91 209q-78 67 -189 67q-142 0 -267 -102q-129 -104 -159 -244l-131 -618q-7 -34 -7 -66z" />
<glyph unicode="1" vert-adv-y="2458" d="M672 0l302 1421h-247l25 115h373l-326 -1536h-127z" />
<glyph unicode="2" vert-adv-y="2458" d="M174 0l12 106l639 529q180 148 257 237q133 151 133 295q0 93 -56 162q-75 92 -210 92q-246 0 -410 -264l-58 88q73 115 167 185q154 114 331 114q133 0 226 -64q137 -94 137 -272q0 -286 -355 -579l-469 -387q-1 -1 -38 -31q-59 -47 -101 -84q20 -2 86 -2h657l-24 -125 h-924z" />
<glyph unicode="3" vert-adv-y="2458" d="M240 160l82 108q130 -157 318 -157q194 0 326 142q120 127 120 276q0 89 -53 157q-88 112 -265 115l-141 2l23 106l133 2q174 3 284 123q82 90 82 199q0 77 -48 129q-66 71 -194 71q-168 0 -343 -153l-29 109q205 163 404 163q195 0 286 -126q52 -71 52 -171 q0 -161 -135 -292q-53 -51 -119 -82q-18 -8 -27 -15q11 -6 31 -15q50 -23 104 -82q84 -91 84 -218q0 -131 -78 -264q-85 -147 -232 -227q-133 -72 -284 -72q-229 0 -381 172z" />
<glyph unicode="4" vert-adv-y="2458" d="M178 307l25 113l948 1116h100l-231 -1084q-1 -4 -1 -7q0 -13 17 -13h168l-27 -125h-174q-14 0 -17 -14l-60 -293h-125l59 288q1 4 1 6q0 13 -17 13h-666zM345 432h532q14 0 17 14l167 781q8 39 8 53z" />
<glyph unicode="5" vert-adv-y="2458" d="M180 315l123 37q23 -111 95 -172q87 -73 218 -73q202 0 352 160q132 142 132 319q0 114 -66 196q-90 111 -252 111h-6q-195 0 -322 -90l-67 80l262 653h674l-27 -123h-549q-22 0 -39 -27q-64 -170 -168 -432q144 64 267 64q214 0 333 -148q88 -109 88 -260 q0 -244 -193 -433q-196 -193 -446 -193q-319 0 -409 331z" />
<glyph unicode="6" vert-adv-y="2458" d="M178 392q0 225 166 415l650 741l94 -65l-420 -479q86 30 164 30q187 0 307 -115q116 -113 116 -292q0 -258 -201 -454q-194 -189 -447 -189q-194 0 -313 115q-116 112 -116 293zM306 418q0 -147 101 -233q89 -76 226 -76q207 0 357 160q136 145 136 324q0 151 -104 240 q-88 76 -224 76q-202 0 -353 -160q-139 -146 -139 -331z" />
<glyph unicode="7" vert-adv-y="2458" d="M281 39l903 1372q1 2 -6 2h-682l27 123h831l8 -68l-977 -1478z" />
<glyph unicode="8" vert-adv-y="2458" d="M233 350q0 183 135 335q84 94 219 165q-124 103 -124 245q0 172 149 315q147 142 326 142q133 0 222 -86q90 -87 90 -216q0 -228 -261 -400q185 -114 185 -317q0 -210 -178 -381q-174 -168 -390 -168q-163 0 -267 102q-106 103 -106 264zM358 373q0 -125 88 -201 q76 -65 186 -65q170 0 302 140q115 122 115 267q0 102 -58 174q-77 96 -218 96q-168 0 -300 -140q-115 -122 -115 -271zM588 1110q0 -80 46 -136q60 -75 167 -75q130 0 230 107q91 97 91 214q0 99 -69 158q-57 49 -142 49q-130 0 -233 -108q-90 -95 -90 -209z" />
<glyph unicode="9" vert-adv-y="2458" d="M289 903q0 257 199 452q195 191 449 191q192 0 311 -115q117 -114 117 -296q0 -219 -168 -412l-645 -741l-94 65l418 477q-83 -28 -162 -28q-189 0 -309 115q-116 113 -116 292zM417 935q0 -148 104 -237q88 -77 220 -77q208 0 360 162q136 145 136 326q0 148 -101 236 q-89 76 -229 76q-205 0 -355 -161q-135 -144 -135 -325z" />
<glyph unicode=":" horiz-adv-x="229" vert-adv-y="2458" d="M57 45q0 27 25 50q25 24 56 24q50 0 50 -50q0 -30 -22 -53q-24 -24 -55 -24q-54 0 -54 53zM222 819q0 30 25 54q26 24 57 24q50 0 50 -53q0 -27 -25 -51q-24 -23 -54 -23q-53 0 -53 49z" />
<glyph unicode=";" horiz-adv-x="227" vert-adv-y="2458" d="M90 229l125 13l-76 -398l-39 -2zM228 819q0 31 25 55q25 23 54 23q50 0 50 -53q0 -27 -25 -51q-24 -23 -54 -23q-50 0 -50 49z" />
<glyph unicode="&#x3c;" horiz-adv-x="1243" vert-adv-y="2458" d="M145 467l20 100l1174 436l14 -79l-1052 -410l880 -403l-49 -80z" />
<glyph unicode="=" horiz-adv-x="1096" vert-adv-y="2458" d="M162 336l23 100h911l-23 -100h-911zM215 582l21 100h911l-20 -100h-912z" />
<glyph unicode="&#x3e;" horiz-adv-x="1276" vert-adv-y="2458" d="M88 111l1051 403l-879 410l51 80l983 -437l-20 -100l-1169 -436z" />
<glyph unicode="?" horiz-adv-x="860" vert-adv-y="2458" d="M308 387q0 104 74 217q70 107 269 250q182 132 235 220q45 73 45 155q0 101 -77 154q-54 36 -132 36q-177 0 -310 -196l-82 71q55 90 136 151q133 99 283 99q161 0 249 -107q62 -76 62 -187q0 -121 -72 -232q-69 -107 -274 -252q-123 -87 -179.5 -144.5t-79.5 -118.5 q-15 -40 -15 -80q0 -86 66 -134l-102 -66q-96 56 -96 164zM331 46q0 23 18 46q26 33 64 33q54 0 54 -53q0 -31 -23 -55q-25 -25 -58 -25q-55 0 -55 54z" />
<glyph unicode="@" horiz-adv-x="1761" vert-adv-y="2458" d="M204 561q0 357 312 659q183 178 413 266q176 68 358 68q358 0 519 -221q88 -120 88 -278q0 -225 -164 -435q-203 -260 -460 -260q-143 0 -143 117q0 24 6 60q-173 -177 -325 -177q-74 0 -123 33q-78 54 -78 164q0 188 140 368q163 210 369 210q84 0 127 -37 q36 -30 58 -107l92 127l68 -12l-234 -504q-21 -45 -21 -85q0 -79 97 -79q190 0 354 211q148 191 148 393q0 208 -171 323q-150 101 -368 101q-401 0 -711 -323q-119 -123 -182 -251q-31 -63 -66 -183v-4q-14 -93 -14 -148q0 -123 72 -239q154 -248 521 -248q301 0 587 161 l24 -49q-312 -198 -622 -198q-392 0 -570 245q-101 139 -101 332zM709 573q0 -147 143 -147q86 0 173 71q86 70 137 175l71 149q27 56 27 107q0 55 -30 92q-41 51 -111 51q-154 0 -284 -168q-126 -160 -126 -330z" />
<glyph unicode="A" horiz-adv-x="1237" vert-adv-y="2458" d="M35 0l860 1536h94l209 -1536h-131l-51 373h-639l-209 -373h-133zM444 498h558l-109 809z" />
<glyph unicode="B" horiz-adv-x="1010" vert-adv-y="2458" d="M94 0l326 1536h303q161 0 257 -93q91 -88 91 -228q0 -254 -240 -421q199 -84 199 -294q0 -203 -155 -353q-153 -147 -361 -147h-420zM244 123h296q174 0 285 140q77 98 77 208q0 112 -74 176q-63 53 -165 53h-295zM393 825h180q177 0 290 143q79 102 79 213q0 95 -56 158 q-65 72 -188 72h-180z" />
<glyph unicode="C" horiz-adv-x="1466" vert-adv-y="2458" d="M217 605q0 222 126 436q149 252 408 394q214 117 440 117q303 0 477 -196l-101 -101q-159 172 -406 172q-209 0 -404 -119q-212 -129 -326 -345q-85 -162 -85 -323q0 -193 117 -338q157 -193 421 -193q242 0 475 170l57 -101q-258 -194 -559 -194q-324 0 -506 226 q-134 167 -134 395z" />
<glyph unicode="D" horiz-adv-x="1341" vert-adv-y="2458" d="M94 0l326 1536h403q272 0 445 -169q175 -171 175 -438q0 -221 -123 -431q-143 -247 -395 -384q-208 -114 -428 -114h-403zM244 125h278q201 0 392 117q210 129 319 340q82 157 82 318q0 239 -169 386q-142 125 -352 125h-277z" />
<glyph unicode="E" horiz-adv-x="911" vert-adv-y="2458" d="M96 0l326 1536h729l-27 -125h-604l-118 -551h605l-26 -125h-605l-131 -610h605l-25 -125h-729z" />
<glyph unicode="F" horiz-adv-x="913" vert-adv-y="2458" d="M94 0l326 1536h735l-27 -125h-610l-117 -551h610l-26 -125h-610l-156 -735h-125z" />
<glyph unicode="G" horiz-adv-x="1638" vert-adv-y="2458" d="M225 603q0 227 126 441q148 251 407 392q213 116 438 116q301 0 488 -213l-108 -90q-156 178 -407 178q-208 0 -404 -119q-215 -130 -328 -347q-84 -162 -84 -328q0 -194 113 -335q153 -189 425 -189q207 0 389 108q92 54 169 141l59 283h-573l26 125h703l-17 -80 l-78 -362q-287 -340 -703 -340q-327 0 -507 224q-134 166 -134 395z" />
<glyph unicode="H" horiz-adv-x="1139" vert-adv-y="2458" d="M92 0l326 1536h125l-150 -707h702l150 707h125l-326 -1536h-125l150 704h-703l-149 -704h-125z" />
<glyph unicode="I" horiz-adv-x="303" vert-adv-y="2458" d="M92 0l326 1534h125l-326 -1534h-125z" />
<glyph unicode="J" horiz-adv-x="819" vert-adv-y="2458" d="M92 254l113 29q25 -182 180 -182q113 0 201 72q83 68 104 167l254 1198h125l-254 -1196q-31 -148 -160 -252q-127 -104 -277 -104q-254 0 -286 268z" />
<glyph unicode="K" horiz-adv-x="870" vert-adv-y="2458" d="M84 0l326 1536h125l-149 -697l604 697h144l-669 -774l338 -762h-150l-301 682l-143 -682h-125z" />
<glyph unicode="L" horiz-adv-x="881" vert-adv-y="2458" d="M92 0l326 1536h125l-300 -1411h607l-25 -125h-733z" />
<glyph unicode="M" horiz-adv-x="1493" vert-adv-y="2458" d="M92 0l326 1534h161l189 -1192l22 -121l78 121l696 1192h162l-325 -1534h-125l274 1300l-755 -1300h-96l-206 1303l-276 -1303h-125z" />
<glyph unicode="N" horiz-adv-x="1278" vert-adv-y="2458" d="M92 0l326 1534h141l544 -1328l283 1330h125l-325 -1536h-144l-544 1329l-281 -1329h-125z" />
<glyph unicode="O" horiz-adv-x="1718" vert-adv-y="2458" d="M217 605q0 224 126 439q149 253 407 392q215 116 443 116q271 0 448 -173q180 -174 180 -447q0 -225 -126 -440q-147 -251 -405 -392q-213 -116 -436 -116q-279 0 -457 173q-180 176 -180 448zM345 634q0 -247 174 -398q146 -127 361 -127q209 0 403 118q213 130 325 344 q86 166 86 336q0 247 -171 394q-147 126 -367 126q-203 0 -399 -119q-228 -139 -340 -371q-72 -151 -72 -303z" />
<glyph unicode="P" horiz-adv-x="874" vert-adv-y="2458" d="M92 0l326 1536h299q153 0 248 -93q96 -95 96 -245q0 -214 -168 -378q-159 -157 -363 -157h-173l-140 -663h-125zM383 786h176q169 0 286 149q87 111 87 232q0 58 -20 108q-56 136 -220 136h-176z" />
<glyph unicode="Q" horiz-adv-x="1720" vert-adv-y="2458" d="M215 605q0 225 126 439q148 251 407 392q213 116 437 116q277 0 454 -173q180 -175 180 -447q0 -252 -155 -484q-90 -135 -239 -255l90 -119l-111 -88l-92 127q-232 -129 -459 -129q-280 0 -458 173q-180 176 -180 448zM343 634q0 -248 174 -398q147 -127 362 -127 q176 0 363 96l-184 248l111 88l190 -258q127 100 202 214q130 195 130 410q0 246 -171 394q-146 126 -362 126q-208 0 -403 -119q-228 -139 -340 -371q-72 -151 -72 -303z" />
<glyph unicode="R" horiz-adv-x="1001" vert-adv-y="2458" d="M80 0l326 1536h346q136 0 226 -63q137 -94 137 -278q0 -197 -142 -356q-92 -103 -244 -171l250 -668h-147l-222 581l-6 14q-14 34 -26 50h-236l-135 -645h-127zM369 770h217q171 0 288 124q112 120 112 273q0 133 -97 200q-64 44 -164 44h-219z" />
<glyph unicode="S" horiz-adv-x="946" vert-adv-y="2458" d="M137 240l113 18q45 -159 208 -159q165 0 288 133q98 106 98 231q0 93 -74 164q-52 48 -168 102q-158 74 -216 132q-79 81 -79 195q0 193 152 342q157 154 348 154q219 0 305 -200l-125 -56q-48 131 -204 131q-113 0 -218 -85q-129 -104 -129 -251q0 -110 94 -174 q37 -24 146 -77q142 -70 188 -109q105 -91 105 -233q0 -203 -160 -359q-159 -155 -358 -155q-141 0 -228 81q-72 67 -86 175z" />
<glyph unicode="T" horiz-adv-x="1067" vert-adv-y="2458" d="M344 1411l26 125h977l-26 -125h-429l-298 -1411h-125l298 1411h-423z" />
<glyph unicode="U" horiz-adv-x="1030" vert-adv-y="2458" d="M162 320q0 43 10 90l239 1126h125l-237 -1118q-10 -46 -10 -91q0 -122 85 -178q62 -42 157 -42q131 0 236 87q108 89 136 220l240 1122h125l-240 -1128q-38 -177 -193 -302q-151 -122 -325 -122q-153 0 -251 95q-97 95 -97 241z" />
<glyph unicode="V" horiz-adv-x="1221" vert-adv-y="2458" d="M356 1536h135l164 -1315l727 1313l134 2l-859 -1536h-94z" />
<glyph unicode="W" horiz-adv-x="1786" vert-adv-y="2458" d="M377 1536h131l49 -1202l6 -90l43 90l559 1202h101l51 -1202l6 -90l602 1290h133l-735 -1534h-102l-64 1255q0 2 -2 2l-592 -1257h-100z" />
<glyph unicode="X" horiz-adv-x="1198" vert-adv-y="2458" d="M47 0l592 713l43 53l-19 55l-288 715h145l242 -592l26 -53l65 78l478 567h146l-642 -770l314 -766h-148l-243 590l-25 53l-45 -53l-492 -590h-149z" />
<glyph unicode="Y" horiz-adv-x="1012" vert-adv-y="2458" d="M354 1536h135l170 -809l514 809h136l-623 -979l-117 -557h-125l117 557z" />
<glyph unicode="Z" horiz-adv-x="1098" vert-adv-y="2458" d="M61 0l19 100l1090 1311h-818l27 125h982l-20 -96l-1097 -1315h823l-25 -125h-981z" />
<glyph unicode="[" horiz-adv-x="485" vert-adv-y="2458" d="M23 -301l418 1960h327l-22 -98h-207l-375 -1764h207l-20 -98h-328z" />
<glyph unicode="\" horiz-adv-x="600" vert-adv-y="2458" d="M358 1524l90 22l123 -1526l-92 -26z" />
<glyph unicode="]" horiz-adv-x="455" vert-adv-y="2458" d="M8 -301l21 98h206l375 1764h-206l22 98h328l-418 -1960h-328z" />
<glyph unicode="^" horiz-adv-x="999" vert-adv-y="2458" d="M229 799l543 733h98l236 -731l-125 -41l-193 610l-453 -610z" />
<glyph unicode="_" horiz-adv-x="1317" vert-adv-y="2458" d="M-47 -223l20 90h1315l-20 -90h-1315z" />
<glyph unicode="`" horiz-adv-x="537" vert-adv-y="2458" d="M322 1300l55 82l369 -163l-56 -84z" />
<glyph unicode="a" horiz-adv-x="1210" vert-adv-y="2458" d="M164 401q0 251 202 447q200 192 451 192q245 0 363 -204l41 188h121l-217 -1024h-121l39 186q-207 -202 -449 -202q-189 0 -309 117q-121 117 -121 300zM287 425q0 -152 106 -243q90 -77 225 -77q208 0 365 166q139 148 139 328q0 152 -106 243q-89 77 -227 77 q-210 0 -367 -169q-135 -145 -135 -325z" />
<glyph unicode="b" horiz-adv-x="1208" vert-adv-y="2458" d="M88 0l303 1434h121l-127 -598q202 204 449 204q188 0 309 -117q122 -117 122 -301q0 -248 -203 -445q-200 -193 -451 -193q-248 0 -363 202l-39 -186h-121zM308 425q0 -152 105 -243q89 -77 223 -77q209 0 367 166q139 148 139 328q0 152 -107 243q-90 77 -229 77 q-204 0 -360 -165q-138 -147 -138 -329z" />
<glyph unicode="c" horiz-adv-x="1141" vert-adv-y="2458" d="M164 401q0 251 202 447q200 192 450 192q265 0 391 -241l-111 -70q-83 190 -303 190q-214 0 -371 -169q-135 -145 -135 -325q0 -120 69 -205q93 -115 263 -115q235 0 395 202l103 -45q-213 -278 -522 -278q-219 0 -341 151q-90 111 -90 266z" />
<glyph unicode="d" horiz-adv-x="1180" vert-adv-y="2458" d="M139 401q0 251 202 447q199 192 451 192q248 0 363 -204l127 598h121l-303 -1434h-121l39 186q-204 -202 -449 -202q-189 0 -309 117q-121 117 -121 300zM262 425q0 -152 106 -243q90 -77 225 -77q208 0 365 166q139 148 139 328q0 152 -106 243q-89 77 -227 77 q-210 0 -367 -169q-135 -145 -135 -325z" />
<glyph unicode="e" horiz-adv-x="1122" vert-adv-y="2458" d="M164 401q0 257 204 455q190 184 433 184q168 0 270 -100q110 -107 110 -285q0 -80 -21 -161q-6 -23 -9 -35h-864q-1 -28 -1 -43q0 -122 78 -208q94 -103 257 -103q187 0 367 118l28 -98q-205 -141 -419 -141q-221 0 -343 151q-90 111 -90 266zM312 567h739q6 48 6 78 q0 131 -96 212q-74 62 -187 62q-190 0 -337 -149q-78 -78 -125 -203z" />
<glyph unicode="f" horiz-adv-x="657" vert-adv-y="2458" d="M205 0l190 903h-157l24 113h158l43 205q22 101 93 159q68 54 155 54h145l-22 -113h-123q-108 0 -131 -110l-41 -195h282l-24 -113h-283l-190 -903h-119z" />
<glyph unicode="g" horiz-adv-x="1204" vert-adv-y="2458" d="M119 -293l111 72q88 -158 286 -158q169 0 312 117q145 119 182 289l35 161q-201 -202 -449 -202q-220 0 -342 152q-89 110 -89 263q0 249 203 446q199 193 451 193q247 0 363 -202l41 186h121l-215 -1008q-45 -209 -232 -361q-189 -153 -405 -153q-249 0 -373 205z M299 425q0 -120 70 -205q93 -115 260 -115q210 0 367 168q136 145 136 326q0 119 -69 205q-92 115 -263 115q-205 0 -362 -166q-139 -148 -139 -328z" />
<glyph unicode="h" horiz-adv-x="995" vert-adv-y="2458" d="M88 0l303 1434h121l-111 -527q154 133 326 133q153 0 251 -96q94 -91 94 -227q0 -38 -9 -82l-133 -635h-119l131 625q7 33 7 61q0 108 -80 177q-68 58 -168 58q-133 0 -234 -82q-98 -78 -125 -208l-133 -631h-121z" />
<glyph unicode="i" horiz-adv-x="272" vert-adv-y="2458" d="M76 0l217 1024h121l-217 -1024h-121zM326 1206q0 31 26 55q25 25 58 25q53 0 53 -53q0 -30 -26 -55t-56 -25q-55 0 -55 53z" />
<glyph unicode="j" horiz-adv-x="391" vert-adv-y="2458" d="M-47 -479l47 110h3t4 -1h6q33 0 66 16q53 26 64 80l277 1298h119l-287 -1346q-16 -75 -96 -122q-72 -43 -150 -43q-29 0 -53 8zM451 1207q0 30 25 54q26 25 58 25q53 0 53 -52q0 -31 -27 -58q-24 -23 -54 -23q-55 0 -55 54z" />
<glyph unicode="k" horiz-adv-x="688" vert-adv-y="2458" d="M90 0l303 1434h119l-179 -848l404 438h147l-454 -492l248 -532h-146l-222 480l-101 -480h-119z" />
<glyph unicode="l" horiz-adv-x="291" vert-adv-y="2458" d="M88 0l303 1432h121l-303 -1432h-121z" />
<glyph unicode="m" horiz-adv-x="1741" vert-adv-y="2458" d="M88 0l217 1024h121l-25 -117q154 133 327 133q230 0 318 -204q175 204 403 204q152 0 250 -95q96 -93 96 -231q0 -40 -9 -83l-133 -631h-119l131 618q7 34 7 62q0 111 -81 180q-68 59 -165 59q-121 0 -229 -84q-113 -88 -136 -200l-133 -635h-117l131 625q6 28 6 57 q0 112 -80 181q-68 58 -168 58q-134 0 -235 -82q-96 -78 -123 -206l-133 -633h-121z" />
<glyph unicode="n" horiz-adv-x="1016" vert-adv-y="2458" d="M88 0l217 1024l121 -2l-25 -115q154 133 326 133q153 0 251 -96q94 -91 94 -227q0 -38 -9 -82l-133 -635h-119l131 625q7 33 7 61q0 108 -80 177q-68 58 -168 58q-133 0 -234 -82q-98 -78 -125 -208l-133 -631h-121z" />
<glyph unicode="o" horiz-adv-x="1200" vert-adv-y="2458" d="M166 401q0 251 203 447q199 192 454 192q183 0 303 -116q121 -118 121 -302q0 -248 -203 -445q-199 -193 -448 -193q-189 0 -309 117q-121 117 -121 300zM290 425q0 -152 106 -243q90 -77 225 -77q208 0 364 166q139 148 139 328q0 152 -106 243q-89 77 -227 77 q-209 0 -366 -169q-135 -145 -135 -325z" />
<glyph unicode="p" horiz-adv-x="1208" vert-adv-y="2458" d="M0 -420l305 1444h121l-41 -186q204 202 449 202q188 0 309 -117t121 -300q0 -251 -202 -447q-200 -192 -451 -192q-249 0 -363 204l-129 -608h-119zM306 426q0 -152 106 -244q89 -77 224 -77q213 0 370 169q135 145 135 325q0 152 -106 243q-90 77 -228 77 q-205 0 -362 -166q-139 -148 -139 -327z" />
<glyph unicode="q" horiz-adv-x="1180" vert-adv-y="2458" d="M166 402q0 248 203 445q200 193 451 193q248 0 363 -202l41 186h121l-307 -1442h-121l129 606q-201 -202 -449 -202q-190 0 -311 118q-120 116 -120 298zM289 426q0 -153 107 -244q90 -77 226 -77q207 0 364 165q138 147 138 329q0 152 -105 243q-89 77 -227 77 q-206 0 -363 -166q-140 -148 -140 -327z" />
<glyph unicode="r" horiz-adv-x="655" vert-adv-y="2458" d="M88 0l217 1024q12 -1 37 -2q39 -2 82 -2l-23 -113q136 128 344 131h17q40 0 57 -2q-18 -79 -29 -121q-12 1 -30 2q-11 0 -24 1h-12q-137 0 -243 -74q-110 -77 -139 -213l-133 -631h-121z" />
<glyph unicode="s" horiz-adv-x="684" vert-adv-y="2458" d="M102 127l115 61q45 -85 132 -85q85 0 146 67q52 56 52 128q0 56 -44 107q-35 41 -124 101q-83 55 -112 96q-32 44 -32 100q0 132 106 236q104 102 231 102q88 0 156 -53q35 -27 56 -72l-115 -73q-55 77 -125 77q-80 0 -137 -72q-45 -57 -45 -112q0 -57 130 -149 q96 -69 130 -113q49 -64 49 -147q0 -114 -72 -207q-106 -135 -275 -135q-91 0 -157 51q-48 38 -65 92z" />
<glyph unicode="t" horiz-adv-x="782" vert-adv-y="2458" d="M229 903l25 113h292l64 301h119l-64 -301h291l-25 -113h-290l-191 -903h-119l191 903h-293z" />
<glyph unicode="u" horiz-adv-x="1010" vert-adv-y="2458" d="M152 312q0 40 8 79l136 631h120l-133 -621q-6 -29 -6 -59q0 -111 79 -179q67 -58 168 -58q135 0 238 84q94 77 121 204l136 629h118l-217 -1022h-116l24 119q-156 -135 -332 -135q-149 0 -247 94q-97 93 -97 234z" />
<glyph unicode="v" horiz-adv-x="883" vert-adv-y="2458" d="M254 1024h129l88 -741l3 -22q6 -38 7 -64l453 827h129l-573 -1024h-99z" />
<glyph unicode="w" horiz-adv-x="1516" vert-adv-y="2458" d="M266 1024h129l91 -822l444 822h92l90 -827l442 827h129l-561 -1024h-102l-95 799l-434 -799h-98z" />
<glyph unicode="x" horiz-adv-x="866" vert-adv-y="2458" d="M39 0l428 510l-215 514h146l165 -401l338 399h142l-433 -512l217 -510h-143l-168 399l-336 -399h-141z" />
<glyph unicode="y" horiz-adv-x="895" vert-adv-y="2458" d="M144 -422l243 426l-144 1020h131l113 -842l477 844h129l-823 -1448h-126z" />
<glyph unicode="z" horiz-adv-x="850" vert-adv-y="2458" d="M70 0l16 80l729 829h-548l24 115h701l-21 -94l-721 -817h551l-22 -113h-709z" />
<glyph unicode="{" horiz-adv-x="717" vert-adv-y="2458" d="M229 623l31 145q197 16 258 301l55 260q58 268 209 330q58 23 203 22l-25 -114q-110 -10 -167 -46q-70 -47 -103 -190l-53 -248q-39 -182 -103 -268q-81 -102 -186 -119q149 -46 149 -201q0 -61 -26 -188l-52 -246q-10 -50 -10 -94q0 -73 45 -104q41 -28 135 -37 l-24 -115q-80 1 -121 6q-68 9 -99 30q-58 40 -58 156q0 77 18 160l55 261q17 79 17 129q0 152 -148 170z" />
<glyph unicode="|" horiz-adv-x="283" vert-adv-y="2458" d="M82 -20l340 1597h113l-340 -1597h-113z" />
<glyph unicode="}" horiz-adv-x="735" vert-adv-y="2458" d="M39 -289q5 26 10 58q5 31 10 57q111 9 169 47q72 48 104 188l51 246q32 151 76 228q71 120 213 161q-148 37 -148 201q0 70 25 186l53 248q10 46 10 91q0 76 -45 107q-41 29 -137 38l25 114q81 0 122 -5q68 -9 99 -30q57 -40 57 -151q0 -80 -18 -166l-55 -260 q-16 -73 -16 -128q0 -81 35 -123q33 -41 112 -50l-31 -145q-91 -10 -150 -64q-71 -68 -108 -235l-55 -261q-58 -270 -209 -330q-59 -23 -199 -22z" />
<glyph unicode="~" horiz-adv-x="1221" vert-adv-y="2458" d="M172 451q14 39 65 90q108 104 248 104h27q78 -3 236 -84q131 -66 200 -74h8q159 0 258 140l50 -45q-14 -39 -61 -87q-103 -106 -247 -106h-16q-85 2 -248 84q-130 64 -198 74h-29q-136 -2 -242 -139z" />
<glyph unicode="&#xa0;" horiz-adv-x="594" vert-adv-y="2458" />
<glyph unicode="&#xa1;" horiz-adv-x="295" vert-adv-y="2458" d="M84 -8l281 1325h125l-281 -1325h-125zM388 1453q0 32 26 58q26 25 59 25q57 0 57 -56q0 -30 -26 -55q-27 -26 -60 -26q-56 0 -56 54z" />
<glyph unicode="&#xa2;" horiz-adv-x="1112" vert-adv-y="2458" d="M153 402q0 261 216 458q147 134 361 173l39 184h121l-39 -180q240 -22 344 -238l-110 -70q-61 166 -258 187l-173 -809q220 24 349 200l104 -45q-186 -254 -479 -274l-35 -166h-121l37 170q-169 32 -258 133q-98 112 -98 277zM278 425q0 -250 256 -312l170 798 q-199 -44 -317 -190q-109 -135 -109 -296z" />
<glyph unicode="&#xa3;" horiz-adv-x="1190" vert-adv-y="2458" d="M131 0l25 125h49q63 0 146 48q88 51 128 141q25 56 25 110q0 139 -92 328h-144l21 100h94q-15 68 -15 122q0 184 127 345q91 114 219 176q117 57 242 57q221 0 344 -182l-116 -74q-80 129 -254 129q-123 0 -236 -76q-198 -133 -198 -375q0 -72 20 -122h451l-21 -100h-403 q87 -195 87 -313q0 -179 -184 -312h295q127 0 219 74q91 75 121 201q43 -1 85 -2q4 0 38 -1q-85 -398 -565 -399h-508z" />
<glyph unicode="&#xa4;" horiz-adv-x="1260" vert-adv-y="2458" d="M125 207l227 192l-16 33q-37 74 -37 162q0 200 151 362l29 31l-152 193l80 64l150 -193l37 22q140 86 283 86q71 0 131 -23q80 -31 112 -63l25 -24l223 182l57 -51l-227 -195q53 -99 53 -199q0 -204 -178 -385l150 -190l-77 -65l-149 192q-144 -111 -321 -111 q-147 0 -246 84l-27 23l-231 -184zM409 619q0 -133 94 -216q81 -70 197 -70q179 0 320 148q124 131 124 283q0 108 -64 188q-84 105 -230 105q-176 0 -317 -150q-124 -132 -124 -288z" />
<glyph unicode="&#xa5;" horiz-adv-x="1249" vert-adv-y="2458" d="M176 578l23 100h458l-49 226h-362l22 100h318l-111 532h133l172 -809l514 809h137l-339 -532h313l-23 -100h-356l-141 -226h450l-22 -100h-496l-10 -21l-117 -557h-125l117 557l-6 21h-500z" />
<glyph unicode="&#xa6;" horiz-adv-x="283" vert-adv-y="2458" d="M82 -23l137 648h113l-137 -648h-113zM285 928l137 649h113l-138 -649h-112z" />
<glyph unicode="&#xa7;" horiz-adv-x="1135" vert-adv-y="2458" d="M45 -319l109 94l28 -31q46 -51 65 -66q66 -47 179 -47q166 0 259 78q73 61 73 153q0 57 -38 102q-49 56 -263 151l-70 30q-223 99 -223 278q0 136 91 237q67 75 236 192q-105 88 -105 182q0 163 141 277q138 112 339 112q149 0 278 -59q62 -28 105 -72l-114 -118l-46 43 q-76 73 -229 73q-157 0 -249 -79q-79 -68 -79 -158q0 -43 31 -82q56 -69 254 -164q229 -109 301 -200q48 -60 48 -129q0 -120 -91 -220q-76 -84 -282 -184q103 -91 103 -187q0 -169 -141 -282q-135 -109 -330 -109q-172 0 -295 89q-55 40 -85 96zM300 461q0 -92 82 -156 q66 -52 246 -121q64 -25 95 -39q302 118 302 304q0 98 -90 148q-57 32 -368 183l-33 -22q-234 -161 -234 -297z" />
<glyph unicode="&#xa8;" horiz-adv-x="580" vert-adv-y="2458" d="M344 1230q0 31 23 54q25 25 57 25q26 0 43 -20q13 -15 13 -34q0 -28 -26 -52q-26 -25 -57 -25q-53 0 -53 52zM627 1230q0 32 23 54q25 25 56 25q54 0 54 -53q0 -23 -18 -45q-26 -33 -63 -33q-52 0 -52 52z" />
<glyph unicode="&#xa9;" horiz-adv-x="1628" vert-adv-y="2458" d="M211 589q0 204 116 403q142 244 390 378q205 111 419 111q257 0 425 -164q168 -165 168 -422q0 -214 -118 -416q-139 -238 -383 -372q-202 -111 -413 -111q-261 0 -432 167q-172 168 -172 426zM300 600q0 -244 170 -391q145 -125 361 -125q212 0 410 121q212 130 323 341 q85 161 85 326q0 245 -173 394q-149 127 -372 127q-202 0 -395 -117q-225 -136 -336 -368q-73 -154 -73 -308zM522 640q0 216 177 389q179 173 406 173q179 0 267 -106l-60 -66q-92 90 -228 90q-197 0 -342 -154q-130 -138 -130 -305q0 -112 68 -195q90 -112 242 -112 q139 0 265 88l41 -57q-14 -14 -43 -31q-142 -84 -277 -84q-197 0 -306 136q-80 98 -80 234z" />
<glyph unicode="&#xaa;" horiz-adv-x="866" vert-adv-y="2458" d="M300 1057q0 167 134 298q135 132 307 132q164 0 245 -137l27 127h82l-150 -700l-69 55l16 82q-137 -139 -302 -139q-126 0 -208 79q-82 80 -82 203zM384 1073q0 -103 71 -164q60 -52 152 -52q140 0 245 112q94 99 94 223q0 102 -71 164q-59 51 -151 51q-139 0 -246 -112 q-94 -99 -94 -222z" />
<glyph unicode="&#xab;" horiz-adv-x="719" vert-adv-y="2458" d="M160 555l346 403l70 -57l-297 -346l149 -346l-94 -57zM414 555l344 403l72 -57l-297 -346l149 -346l-96 -57z" />
<glyph unicode="&#xac;" horiz-adv-x="1358" vert-adv-y="2458" d="M184 693l23 100h1056l-135 -635h-100l113 535h-957z" />
<glyph unicode="&#xad;" horiz-adv-x="807" vert-adv-y="2458" d="M207 549l23 100h622l-22 -100h-623z" />
<glyph unicode="&#xae;" horiz-adv-x="1669" vert-adv-y="2458" d="M213 596q0 213 119 417q146 251 399 389q211 114 431 114q264 0 437 -169q174 -171 174 -437q0 -216 -122 -423q-144 -245 -395 -383q-208 -114 -426 -114q-268 0 -442 171q-175 173 -175 435zM303 611q0 -252 176 -404q150 -129 371 -129q217 0 422 125q220 134 334 352 q87 165 87 333q0 254 -180 408q-153 132 -382 132q-209 0 -408 -122q-234 -143 -346 -380q-74 -157 -74 -315zM689 309l190 903h189q82 0 135 -36q79 -55 79 -163q0 -162 -118 -266q-35 -30 -78 -52q-14 -7 -22 -13l88 -369h-92l-82 343q-6 8 -15 8h-104q-8 0 -8 -8 l-74 -347h-88zM869 758q0 -6 10 -6h107q109 0 172 112q36 64 36 129q0 133 -130 133h-107q-9 0 -12 -12z" />
<glyph unicode="&#xaf;" horiz-adv-x="821" vert-adv-y="2458" d="M373 1340l21 100h645l-21 -100h-645z" />
<glyph unicode="&#xb0;" horiz-adv-x="803" vert-adv-y="2458" d="M307 1085q0 155 127 277q124 121 282 121q114 0 189 -73q76 -74 76 -188q0 -155 -127 -278q-124 -121 -280 -121q-117 0 -191 73q-76 74 -76 189zM387 1102q0 -96 66 -153q56 -48 138 -48q128 0 224 103q85 92 85 204q0 91 -64 147q-55 48 -141 48q-125 0 -222 -102 q-86 -90 -86 -199z" />
<glyph unicode="&#xb1;" horiz-adv-x="1073" vert-adv-y="2458" d="M65 94l23 100h981l-23 -100h-981zM174 606l20 96h440l76 355h97l-76 -355h442l-20 -96h-443l-73 -350h-97l74 350h-440z" />
<glyph unicode="&#xb2;" horiz-adv-x="801" vert-adv-y="2458" d="M256 614l18 86l494 400q46 37 85 98q35 54 35 106q0 63 -36 107q-49 61 -135 61q-94 0 -170 -69q-42 -37 -70 -96l-67 22q42 85 107 137q101 82 216 82q116 0 183 -83q49 -61 49 -146q0 -73 -45 -144q-50 -80 -117 -135l-322 -264l-57 -45l-6 -5q-30 -23 -43 -36h463 l-17 -76h-565z" />
<glyph unicode="&#xb3;" horiz-adv-x="776" vert-adv-y="2458" d="M278 826q0 12 1 34l78 8q-1 -18 -1 -26q0 -62 42 -108q48 -54 130 -54q107 0 189 87q73 78 73 178q0 159 -161 175l13 68q50 18 84 52q60 59 60 131q0 107 -103 107q-92 0 -156 -98l-59 35q80 137 234 137q80 0 127 -57q34 -42 34 -101q0 -58 -32 -120q-21 -41 -85 -100 l-6 -7l10 -6q118 -70 118 -200q0 -139 -109 -247q-110 -108 -247 -108q-110 0 -177 74q-57 62 -57 146z" />
<glyph unicode="&#xb4;" horiz-adv-x="539" vert-adv-y="2458" d="M305 1219l438 163l19 -82l-439 -165z" />
<glyph unicode="&#xb5;" horiz-adv-x="997" vert-adv-y="2458" d="M-6 -444l326 1542h120l-147 -701q-6 -28 -6 -58q0 -112 79 -180q67 -58 165 -58q123 0 232 88q106 85 130 200l149 709h119l-231 -1098l-106 61l10 54q-156 -135 -330 -135q-172 0 -272 133l-119 -557h-119z" />
<glyph unicode="&#xb6;" horiz-adv-x="1034" vert-adv-y="2458" d="M265 1027q0 212 167 333q135 98 410 98h418l-404 -1896h-125l377 1773h-182l-377 -1773h-125l252 1181q-411 21 -411 284z" />
<glyph unicode="&#xb7;" horiz-adv-x="268" vert-adv-y="2458" d="M229 765q0 30 25 54q26 25 58 25q53 0 53 -52q0 -25 -18 -48q-26 -33 -64 -33q-54 0 -54 54z" />
<glyph unicode="&#xb8;" horiz-adv-x="530" vert-adv-y="2458" d="M-14 -365l57 48l41 -23q33 -18 87 -18q58 0 104 37q45 36 45 88q0 67 -68 67h-24l-33 -6h-3q-4 -1 -10 -2l-6 -1q-8 -1 -18 -1q-20 12 -45 26l139 150h74l-102 -104q5 0 15 2q25 4 49 4q128 0 128 -115q0 -101 -85 -170q-80 -63 -180 -63q-112 0 -165 81z" />
<glyph unicode="&#xb9;" horiz-adv-x="344" vert-adv-y="2458" d="M338 614l181 852h-146l14 70h223l-196 -922h-76z" />
<glyph unicode="&#xba;" horiz-adv-x="852" vert-adv-y="2458" d="M301 1052q0 169 136 300q133 129 305 129q122 0 203 -78q81 -79 81 -202q0 -166 -136 -299q-133 -130 -301 -130q-126 0 -207 78q-81 79 -81 202zM385 1070q0 -103 72 -165q61 -53 151 -53q139 0 245 113q93 99 93 219q0 104 -72 165q-60 52 -152 52q-140 0 -246 -115 q-91 -97 -91 -216z" />
<glyph unicode="&#xbb;" horiz-adv-x="739" vert-adv-y="2458" d="M86 209l297 346l-149 347l96 56l172 -403l-344 -403zM340 209l297 346l-150 346l94 57l175 -403l-347 -404z" />
<glyph unicode="&#xbc;" horiz-adv-x="1450" vert-adv-y="2458" d="M318 539l195 917h-158l16 82h248l-213 -999h-88zM373 20l770 1526l82 -22l-772 -1530zM760 195l15 78l616 726h72l-148 -699q-1 -5 -1 -7q0 -12 17 -12h97l-19 -86h-102q-14 0 -17 -14l-38 -181h-88l37 176q1 6 1 7q0 12 -17 12h-425zM879 284l2 -3h328q14 -1 17 13 l112 529l-1 2z" />
<glyph unicode="&#xbd;" horiz-adv-x="1538" vert-adv-y="2458" d="M318 539l195 917h-158l16 82h248l-213 -999h-88zM373 20l770 1526l82 -22l-772 -1530zM854 0l19 96q52 43 150 117q194 148 310 250q123 108 155 169q9 15 30 66q6 37 6 59q0 72 -55 120q-48 41 -123 41q-168 0 -250 -173l-80 23q45 91 115 148q109 88 234 88 q124 0 195 -87q53 -65 53 -157q0 -85 -51 -164q-80 -125 -371 -346q-46 -35 -93 -72l-59 -47q-29 -21 -51 -43q18 -1 63 -2h426l-16 -86h-607z" />
<glyph unicode="&#xbe;" horiz-adv-x="1663" vert-adv-y="2458" d="M217 750q0 17 2 41l88 8q-1 -19 -1 -28q0 -74 48 -121q49 -48 132 -48q116 0 201 91q76 81 76 185q0 94 -64 150q-41 36 -112 41q7 30 13 65l2 9q155 62 155 202q0 103 -107 103q-93 0 -159 -98l-72 36q93 150 252 150q87 0 137 -62q38 -46 38 -109q0 -134 -132 -245 q140 -73 140 -220q0 -152 -118 -268t-266 -116q-105 0 -177 65q-76 69 -76 169zM598 20l768 1526l81 -22l-769 -1530zM983 195l14 78l617 726h71l-147 -699q-1 -3 -1 -5q0 -14 16 -14h97l-18 -86h-103q-14 0 -17 -14l-38 -181h-88l37 176q1 3 1 6q0 13 -17 13h-424z M1102 284l1 -3h328q14 -1 17 13l112 529l-1 2z" />
<glyph unicode="&#xbf;" horiz-adv-x="860" vert-adv-y="2458" d="M124 282q0 124 72 236q68 106 272 252q160 114 210 179q62 82 62 156q0 63 -64 140l103 66q95 -54 95 -165q0 -103 -74 -216q-69 -106 -269 -250q-182 -132 -235 -220q-44 -72 -44 -154q0 -100 76 -152q53 -37 132 -37q180 0 308 194l86 -69q-57 -92 -138 -151 q-133 -99 -282 -99q-162 0 -249 107q-61 75 -61 183zM715 1462q0 26 19 49q26 33 64 33q54 0 54 -53q0 -31 -25 -55q-26 -25 -59 -25q-53 0 -53 51z" />
<glyph unicode="&#xc0;" horiz-adv-x="1237" vert-adv-y="2458" d="M35 0l860 1536h94l209 -1536h-131l-51 373h-639l-209 -373h-133zM444 498h558l-109 809zM758 1710l55 82l369 -164l-56 -84z" />
<glyph unicode="&#xc1;" horiz-adv-x="1237" vert-adv-y="2458" d="M35 0l860 1536h94l209 -1536h-131l-51 373h-639l-209 -373h-133zM444 498h558l-109 809zM742 1629l438 163l18 -82l-438 -166z" />
<glyph unicode="&#xc2;" horiz-adv-x="1237" vert-adv-y="2458" d="M35 0l860 1536h94l209 -1536h-131l-51 373h-639l-209 -373h-133zM444 498h558l-109 809zM737 1565l23 90l225 88l189 -86l-17 -90q-27 1 -192 84q-200 -85 -228 -86z" />
<glyph unicode="&#xc3;" horiz-adv-x="1237" vert-adv-y="2458" d="M35 0l860 1536h94l209 -1536h-131l-51 373h-639l-209 -373h-133zM444 498h558l-109 809zM635 1702q102 108 211 108q52 0 147 -35q90 -34 141 -34q73 0 163 71l32 -49q-97 -112 -204 -112q-52 0 -151 37q-95 36 -145 36q-64 0 -163 -73z" />
<glyph unicode="&#xc4;" horiz-adv-x="1237" vert-adv-y="2458" d="M35 0l860 1536h94l209 -1536h-131l-51 373h-639l-209 -373h-133zM444 498h558l-109 809zM758 1639q0 31 23 54q25 25 57 25q26 0 43 -20q13 -15 13 -34q0 -28 -26 -52q-25 -25 -57 -25q-53 0 -53 52zM1041 1640q0 31 23 54q25 25 57 25q54 0 54 -54q0 -21 -18 -44 q-26 -33 -64 -33q-52 0 -52 52z" />
<glyph unicode="&#xc5;" horiz-adv-x="1237" vert-adv-y="2458" d="M35 0l860 1536h94l209 -1536h-131l-51 373h-639l-209 -373h-133zM444 498h558l-109 809zM873 1616q0 44 32 76t76 32q72 0 72 -69q0 -43 -32 -75t-76 -32q-72 0 -72 68zM910 1618q0 -33 42 -33q27 0 44 18q19 19 19 44q0 40 -43 40q-62 0 -62 -69z" />
<glyph unicode="&#xc6;" horiz-adv-x="1546" vert-adv-y="2458" d="M35 0l965 1536h813l-27 -125h-604l-118 -551h605l-26 -125h-606l-130 -610h604l-24 -125h-729l78 373h-361q-41 0 -55 -6q-18 -7 -47 -51l-205 -316h-133zM479 498h381l190 889l-7 -7l-535 -839z" />
<glyph unicode="&#xc7;" horiz-adv-x="1466" vert-adv-y="2458" d="M218 603q0 224 126 438q149 252 408 394q215 117 440 117q303 0 477 -196l-100 -101q-160 172 -407 172q-208 0 -403 -119q-212 -129 -326 -345q-85 -162 -85 -324q0 -192 117 -337q156 -193 421 -193q242 0 474 170l58 -101q-258 -194 -562 -194q-19 0 -59 4l-88 -92 q6 0 16 2q24 4 49 4q128 0 128 -116q0 -100 -86 -169q-79 -63 -180 -63q-112 0 -165 81l58 48l41 -23q32 -18 86 -18q58 0 105 37q45 36 45 88q0 67 -68 67h-25l-33 -6h-3q-4 -1 -9 -2l-7 -1q-8 -1 -18 -1q-19 12 -45 26l134 144q-153 34 -237 88q-277 179 -277 521z" />
<glyph unicode="&#xc8;" horiz-adv-x="911" vert-adv-y="2458" d="M96 0l326 1536h729l-27 -125h-604l-118 -551h605l-26 -125h-605l-130 -610h604l-25 -125h-729zM594 1710l55 82l369 -164l-56 -84z" />
<glyph unicode="&#xc9;" horiz-adv-x="911" vert-adv-y="2458" d="M96 0l326 1536h729l-27 -125h-604l-118 -551h605l-26 -125h-605l-130 -610h604l-25 -125h-729zM577 1628l439 164l18 -82l-438 -166z" />
<glyph unicode="&#xca;" horiz-adv-x="911" vert-adv-y="2458" d="M96 0l326 1536h729l-27 -125h-604l-118 -551h605l-26 -125h-605l-130 -610h604l-25 -125h-729zM575 1565l23 90l225 88l188 -86l-16 -90q-27 1 -192 84q-200 -85 -228 -86z" />
<glyph unicode="&#xcb;" horiz-adv-x="911" vert-adv-y="2458" d="M96 0l326 1536h729l-27 -125h-604l-118 -551h605l-26 -125h-605l-130 -610h604l-25 -125h-729zM596 1639q0 31 23 54q25 25 57 25q27 0 43 -20q13 -15 13 -34q0 -28 -26 -52q-26 -25 -57 -25q-53 0 -53 52zM879 1639q0 31 23 54q25 25 56 25q54 0 54 -54q0 -22 -18 -44 q-25 -33 -63 -33q-52 0 -52 52z" />
<glyph unicode="&#xcc;" horiz-adv-x="303" vert-adv-y="2458" d="M92 0l326 1534h125l-326 -1534h-125zM297 1710l55 82l369 -164l-56 -84z" />
<glyph unicode="&#xcd;" horiz-adv-x="303" vert-adv-y="2458" d="M92 0l326 1534h125l-326 -1534h-125zM281 1628l438 164l18 -82l-438 -166z" />
<glyph unicode="&#xce;" horiz-adv-x="303" vert-adv-y="2458" d="M92 0l326 1534h125l-326 -1534h-125zM276 1565l23 90l225 88l189 -86l-17 -90q-27 1 -192 84q-200 -85 -228 -86z" />
<glyph unicode="&#xcf;" horiz-adv-x="303" vert-adv-y="2458" d="M92 0l326 1534h125l-326 -1534h-125zM297 1639q0 31 23 54q25 25 57 25q27 0 43 -20q13 -15 13 -34q0 -28 -26 -52q-26 -25 -57 -25q-53 0 -53 52zM580 1639q0 31 23 54q24 25 56 25q54 0 54 -54q0 -22 -18 -44q-26 -33 -63 -33q-52 0 -52 52z" />
<glyph unicode="&#xd0;" horiz-adv-x="1559" vert-adv-y="2458" d="M203 670l26 123h260l158 743h404q271 0 444 -169q175 -171 175 -437q0 -222 -123 -432q-143 -247 -395 -384q-208 -114 -427 -114h-403l142 670h-261zM472 125h278q201 0 392 118q209 128 318 339q82 158 82 319q0 239 -168 385q-143 125 -352 125h-277l-132 -618h260 l-27 -125h-259z" />
<glyph unicode="&#xd1;" horiz-adv-x="1278" vert-adv-y="2458" d="M92 0l326 1534h141l544 -1328l283 1330h125l-325 -1536h-144l-544 1329l-281 -1329h-125zM655 1702q102 108 211 108q52 0 147 -35q90 -34 141 -34q73 0 163 71l32 -49q-97 -112 -203 -112q-52 0 -152 37q-95 36 -145 36q-64 0 -163 -73z" />
<glyph unicode="&#xd2;" horiz-adv-x="1718" vert-adv-y="2458" d="M217 605q0 224 126 439q149 253 407 392q215 116 443 116q271 0 448 -173q180 -174 180 -447q0 -225 -126 -440q-147 -251 -405 -392q-213 -116 -436 -116q-279 0 -457 173q-180 176 -180 448zM345 634q0 -247 174 -398q146 -127 361 -127q209 0 403 118q213 130 325 344 q86 166 86 336q0 247 -171 394q-147 126 -367 126q-203 0 -399 -119q-228 -139 -340 -371q-72 -151 -72 -303zM997 1710l55 82l369 -164l-56 -84z" />
<glyph unicode="&#xd3;" horiz-adv-x="1718" vert-adv-y="2458" d="M217 605q0 224 126 439q149 253 407 392q215 116 443 116q271 0 448 -173q180 -174 180 -447q0 -225 -126 -440q-147 -251 -405 -392q-213 -116 -436 -116q-279 0 -457 173q-180 176 -180 448zM345 634q0 -247 174 -398q146 -127 361 -127q209 0 403 118q213 130 325 344 q86 166 86 336q0 247 -171 394q-147 126 -367 126q-203 0 -399 -119q-228 -139 -340 -371q-72 -151 -72 -303zM980 1628l438 164l19 -82l-439 -166z" />
<glyph unicode="&#xd4;" horiz-adv-x="1718" vert-adv-y="2458" d="M217 605q0 224 126 439q149 253 407 392q215 116 443 116q271 0 448 -173q180 -174 180 -447q0 -225 -126 -440q-147 -251 -405 -392q-213 -116 -436 -116q-279 0 -457 173q-180 176 -180 448zM345 634q0 -247 174 -398q146 -127 361 -127q209 0 403 118q213 130 325 344 q86 166 86 336q0 247 -171 394q-147 126 -367 126q-203 0 -399 -119q-228 -139 -340 -371q-72 -151 -72 -303zM978 1565l23 90l225 88l188 -86l-16 -90q-27 1 -192 84q-200 -85 -228 -86z" />
<glyph unicode="&#xd5;" horiz-adv-x="1718" vert-adv-y="2458" d="M217 605q0 224 126 439q149 253 407 392q215 116 443 116q271 0 448 -173q180 -174 180 -447q0 -225 -126 -440q-147 -251 -405 -392q-213 -116 -436 -116q-279 0 -457 173q-180 176 -180 448zM345 634q0 -247 174 -398q146 -127 361 -127q209 0 403 118q213 130 325 344 q86 166 86 336q0 247 -171 394q-147 126 -367 126q-203 0 -399 -119q-228 -139 -340 -371q-72 -151 -72 -303zM876 1702q101 108 210 108q53 0 147 -35q91 -34 142 -34q73 0 162 71l33 -49q-97 -112 -204 -112q-52 0 -152 37q-95 36 -144 36q-64 0 -164 -73z" />
<glyph unicode="&#xd6;" horiz-adv-x="1718" vert-adv-y="2458" d="M217 605q0 224 126 439q149 253 407 392q215 116 443 116q271 0 448 -173q180 -174 180 -447q0 -225 -126 -440q-147 -251 -405 -392q-213 -116 -436 -116q-279 0 -457 173q-180 176 -180 448zM345 634q0 -247 174 -398q146 -127 361 -127q209 0 403 118q213 130 325 344 q86 166 86 336q0 247 -171 394q-147 126 -367 126q-203 0 -399 -119q-228 -139 -340 -371q-72 -151 -72 -303zM999 1639q0 31 23 54q25 25 57 25q26 0 43 -20q13 -15 13 -34q0 -28 -26 -52q-26 -25 -57 -25q-53 0 -53 52zM1282 1639q0 31 23 54q24 25 56 25q54 0 54 -53 q0 -23 -18 -45q-26 -33 -63 -33q-52 0 -52 52z" />
<glyph unicode="&#xd7;" horiz-adv-x="1038" vert-adv-y="2458" d="M170 219l369 303l-236 299l82 68l236 -299l366 303l53 -68l-366 -303l237 -303l-82 -67l-237 303l-369 -303z" />
<glyph unicode="&#xd8;" horiz-adv-x="1704" vert-adv-y="2458" d="M211 604q0 225 126 440q148 251 407 392q213 116 439 116q74 0 158 -18l49 96h92l-61 -121q190 -78 286 -218q108 -156 108 -360q0 -224 -126 -439q-147 -251 -405 -392q-214 -116 -435 -116q-79 0 -186 22l-47 -98l-96 -2l63 127q-372 174 -372 571zM339 630 q0 -329 303 -476l637 1259q-74 14 -127 14q-205 0 -400 -119q-229 -139 -340 -371q-73 -152 -73 -307zM724 127q73 -18 149 -18q209 0 404 119q215 132 327 348q83 162 83 329q0 344 -328 484z" />
<glyph unicode="&#xd9;" horiz-adv-x="1030" vert-adv-y="2458" d="M162 320q0 43 10 90l239 1126h125l-237 -1118q-10 -46 -10 -91q0 -122 85 -178q62 -42 157 -42q131 0 236 87q108 89 136 220l240 1122h125l-240 -1128q-38 -177 -193 -302q-151 -122 -325 -122q-153 0 -251 95q-97 95 -97 241zM653 1710l55 82l369 -164l-55 -84z" />
<glyph unicode="&#xda;" horiz-adv-x="1030" vert-adv-y="2458" d="M162 320q0 43 10 90l239 1126h125l-237 -1118q-10 -46 -10 -91q0 -122 85 -178q62 -42 157 -42q131 0 236 87q108 89 136 220l240 1122h125l-240 -1128q-38 -177 -193 -302q-151 -122 -325 -122q-153 0 -251 95q-97 95 -97 241zM637 1628l438 164l19 -82l-439 -166z" />
<glyph unicode="&#xdb;" horiz-adv-x="1030" vert-adv-y="2458" d="M162 320q0 43 10 90l239 1126h125l-237 -1118q-10 -46 -10 -91q0 -122 85 -178q62 -42 157 -42q131 0 236 87q108 89 136 220l240 1122h125l-240 -1128q-38 -177 -193 -302q-151 -122 -325 -122q-153 0 -251 95q-97 95 -97 241zM635 1565l22 90l225 88l189 -86l-16 -90 q-27 1 -193 84q-199 -84 -227 -86z" />
<glyph unicode="&#xdc;" horiz-adv-x="1030" vert-adv-y="2458" d="M162 320q0 43 10 90l239 1126h125l-237 -1118q-10 -46 -10 -91q0 -122 85 -178q62 -42 157 -42q131 0 236 87q108 89 136 220l240 1122h125l-240 -1128q-38 -177 -193 -302q-151 -122 -325 -122q-153 0 -251 95q-97 95 -97 241zM654 1639q0 31 23 54q24 25 56 25 q27 0 44 -20q12 -15 12 -34q0 -28 -26 -52q-25 -25 -57 -25q-52 0 -52 52zM936 1639q0 31 23 54q24 25 57 25q54 0 54 -54q0 -22 -18 -44q-26 -33 -64 -33q-52 0 -52 52z" />
<glyph unicode="&#xdd;" horiz-adv-x="1012" vert-adv-y="2458" d="M354 1536h135l170 -809l514 809h136l-623 -979l-117 -557h-125l117 557zM629 1628l438 164l18 -82l-438 -166z" />
<glyph unicode="&#xde;" horiz-adv-x="883" vert-adv-y="2458" d="M88 0l326 1536h125l-66 -309h174q153 0 248 -93q96 -95 96 -245q0 -214 -168 -378q-159 -157 -362 -157h-173l-75 -354h-125zM314 477h175q169 0 286 149q87 111 87 232q0 104 -60 172q-64 72 -179 72h-177z" />
<glyph unicode="&#xdf;" horiz-adv-x="1001" vert-adv-y="2458" d="M88 0l229 1081q44 206 175 335q123 120 266 120h20q109 0 180 -49q113 -77 113 -239q0 -279 -242 -454q197 -99 197 -293q0 -121 -73 -248q-145 -253 -453 -253h-175l25 123h178q180 0 288 138q82 104 82 213q0 97 -77 162q-76 64 -180 64h-164l29 131h119q83 0 178 76 q144 116 144 308q0 113 -76 165q-49 33 -124 33h-8q-96 0 -179 -89q-85 -92 -118 -245l-229 -1079h-125z" />
<glyph unicode="&#xe0;" horiz-adv-x="1210" vert-adv-y="2458" d="M164 401q0 251 202 447q200 192 451 192q245 0 363 -204l41 188h121l-217 -1024h-121l39 186q-207 -202 -449 -202q-189 0 -309 117q-121 117 -121 300zM287 425q0 -152 106 -243q90 -77 225 -77q208 0 365 166q139 148 139 328q0 152 -106 243q-89 77 -227 77 q-210 0 -367 -169q-135 -145 -135 -325zM654 1300l55 82l369 -163l-56 -84z" />
<glyph unicode="&#xe1;" horiz-adv-x="1210" vert-adv-y="2458" d="M164 401q0 251 202 447q200 192 451 192q245 0 363 -204l41 188h121l-217 -1024h-121l39 186q-207 -202 -449 -202q-189 0 -309 117q-121 117 -121 300zM287 425q0 -152 106 -243q90 -77 225 -77q208 0 365 166q139 148 139 328q0 152 -106 243q-89 77 -227 77 q-210 0 -367 -169q-135 -145 -135 -325zM637 1219l438 163l19 -82l-439 -165z" />
<glyph unicode="&#xe2;" horiz-adv-x="1210" vert-adv-y="2458" d="M164 401q0 251 202 447q200 192 451 192q245 0 363 -204l41 188h121l-217 -1024h-121l39 186q-207 -202 -449 -202q-189 0 -309 117q-121 117 -121 300zM287 425q0 -152 106 -243q90 -77 225 -77q208 0 365 166q139 148 139 328q0 152 -106 243q-89 77 -227 77 q-210 0 -367 -169q-135 -145 -135 -325zM635 1155l23 90l225 88l188 -86l-16 -90q-27 1 -192 84q-200 -84 -228 -86z" />
<glyph unicode="&#xe3;" horiz-adv-x="1210" vert-adv-y="2458" d="M164 401q0 251 202 447q200 192 451 192q245 0 363 -204l41 188h121l-217 -1024h-121l39 186q-207 -202 -449 -202q-189 0 -309 117q-121 117 -121 300zM287 425q0 -152 106 -243q90 -77 225 -77q208 0 365 166q139 148 139 328q0 152 -106 243q-89 77 -227 77 q-210 0 -367 -169q-135 -145 -135 -325zM533 1292q100 109 210 109q53 0 147 -36q91 -34 142 -34q72 0 162 72l33 -49q-98 -113 -204 -113q-51 0 -152 38q-95 36 -144 36q-65 0 -164 -74z" />
<glyph unicode="&#xe4;" horiz-adv-x="1210" vert-adv-y="2458" d="M164 401q0 251 202 447q200 192 451 192q245 0 363 -204l41 188h121l-217 -1024h-121l39 186q-207 -202 -449 -202q-189 0 -309 117q-121 117 -121 300zM287 425q0 -152 106 -243q90 -77 225 -77q208 0 365 166q139 148 139 328q0 152 -106 243q-89 77 -227 77 q-210 0 -367 -169q-135 -145 -135 -325zM656 1230q0 31 23 54q25 25 57 25q26 0 43 -20q13 -15 13 -34q0 -27 -26 -52q-25 -25 -57 -25q-53 0 -53 52zM939 1230q0 31 23 54q25 25 56 25q54 0 54 -54q0 -22 -18 -44q-25 -33 -63 -33q-52 0 -52 52z" />
<glyph unicode="&#xe5;" horiz-adv-x="1210" vert-adv-y="2458" d="M164 401q0 251 202 447q200 192 451 192q245 0 363 -204l41 188h121l-217 -1024h-121l39 186q-207 -202 -449 -202q-189 0 -309 117q-121 117 -121 300zM287 425q0 -152 106 -243q90 -77 225 -77q208 0 365 166q139 148 139 328q0 152 -106 243q-89 77 -227 77 q-210 0 -367 -169q-135 -145 -135 -325zM770 1207q0 44 33 76q32 32 76 32q72 0 72 -69q0 -43 -33 -75q-32 -32 -76 -32q-72 0 -72 68zM807 1208q0 -32 42 -32q28 0 45 18q19 20 19 44q0 40 -43 40q-63 0 -63 -70z" />
<glyph unicode="&#xe6;" horiz-adv-x="2064" vert-adv-y="2458" d="M164 401q0 251 202 447q199 192 451 192q245 0 363 -204l41 188h121l-37 -174q201 190 437 190q169 0 271 -100q110 -107 110 -285q0 -81 -21 -161q-6 -23 -9 -35h-864q-1 -29 -1 -43q0 -122 78 -208q94 -103 257 -103q187 0 367 118l28 -98q-205 -141 -419 -141 q-253 0 -375 198l-39 -182h-121l39 187q-206 -203 -449 -203q-218 0 -340 151q-90 111 -90 266zM288 424q0 -120 69 -205q93 -115 262 -115q207 0 364 166q139 148 139 329q0 119 -69 205q-92 115 -264 115q-209 0 -366 -169q-135 -146 -135 -326zM1254 567h739q6 48 6 78 q0 131 -96 212q-74 62 -187 62q-190 0 -337 -149q-78 -78 -125 -203z" />
<glyph unicode="&#xe7;" horiz-adv-x="1141" vert-adv-y="2458" d="M167 401q0 251 202 447q199 192 450 192q265 0 390 -241l-110 -70q-83 190 -303 190q-214 0 -371 -169q-135 -146 -135 -325q0 -121 69 -206q93 -115 262 -115q236 0 396 203l102 -45q-92 -124 -224 -199q-135 -72 -282 -79l-86 -88q6 0 16 2q24 4 49 4q128 0 128 -116 q0 -100 -86 -169q-79 -63 -180 -63q-110 0 -164 81l57 48l41 -23q33 -18 87 -18q58 0 104 37q45 36 45 89q0 66 -68 66h-25l-32 -6h-4q-4 -1 -9 -2l-6 -1q-8 -1 -18 -1q-20 12 -45 26l127 138q-177 26 -271 128q-106 115 -106 285z" />
<glyph unicode="&#xe8;" horiz-adv-x="1122" vert-adv-y="2458" d="M164 401q0 257 204 455q190 184 433 184q168 0 270 -100q110 -107 110 -285q0 -80 -21 -161q-6 -23 -9 -35h-864q-1 -28 -1 -43q0 -122 78 -208q94 -103 257 -103q187 0 367 118l28 -98q-205 -141 -419 -141q-221 0 -343 151q-90 111 -90 266zM312 567h739q6 48 6 78 q0 131 -96 212q-74 62 -187 62q-190 0 -337 -149q-78 -78 -125 -203zM611 1300l55 82l369 -164l-56 -84z" />
<glyph unicode="&#xe9;" horiz-adv-x="1122" vert-adv-y="2458" d="M164 401q0 257 204 455q190 184 433 184q168 0 270 -100q110 -107 110 -285q0 -80 -21 -161q-6 -23 -9 -35h-864q-1 -28 -1 -43q0 -122 78 -208q94 -103 257 -103q187 0 367 118l28 -98q-205 -141 -419 -141q-221 0 -343 151q-90 111 -90 266zM312 567h739q6 48 6 78 q0 131 -96 212q-74 62 -187 62q-190 0 -337 -149q-78 -78 -125 -203zM594 1218l438 164l19 -82l-438 -166z" />
<glyph unicode="&#xea;" horiz-adv-x="1122" vert-adv-y="2458" d="M164 401q0 257 204 455q190 184 433 184q168 0 270 -100q110 -107 110 -285q0 -80 -21 -161q-6 -23 -9 -35h-864q-1 -28 -1 -43q0 -122 78 -208q94 -103 257 -103q187 0 367 118l28 -98q-205 -141 -419 -141q-221 0 -343 151q-90 111 -90 266zM312 567h739q6 48 6 78 q0 131 -96 212q-74 62 -187 62q-190 0 -337 -149q-78 -78 -125 -203zM590 1155l23 90l225 88l188 -86l-16 -90q-27 1 -192 84q-200 -85 -228 -86z" />
<glyph unicode="&#xeb;" horiz-adv-x="1122" vert-adv-y="2458" d="M164 401q0 257 204 455q190 184 433 184q168 0 270 -100q110 -107 110 -285q0 -80 -21 -161q-6 -23 -9 -35h-864q-1 -28 -1 -43q0 -122 78 -208q94 -103 257 -103q187 0 367 118l28 -98q-205 -141 -419 -141q-221 0 -343 151q-90 111 -90 266zM312 567h739q6 48 6 78 q0 131 -96 212q-74 62 -187 62q-190 0 -337 -149q-78 -78 -125 -203zM611 1230q0 32 23 54q25 25 57 25q26 0 43 -20q13 -15 13 -34q0 -28 -26 -52q-26 -25 -57 -25q-53 0 -53 52zM894 1229q0 31 23 54q25 25 56 25q54 0 54 -54q0 -22 -18 -44q-25 -33 -63 -33q-52 0 -52 52 z" />
<glyph unicode="&#xec;" horiz-adv-x="301" vert-adv-y="2458" d="M94 0l217 1026h119l-217 -1026h-119zM207 1300l55 82l369 -163l-56 -84z" />
<glyph unicode="&#xed;" horiz-adv-x="301" vert-adv-y="2458" d="M94 0l217 1026h119l-217 -1026h-119zM190 1219l438 163l19 -82l-439 -165z" />
<glyph unicode="&#xee;" horiz-adv-x="301" vert-adv-y="2458" d="M94 0l217 1026h119l-217 -1026h-119zM188 1155l23 90l225 88l188 -86l-16 -90q-27 1 -192 84q-200 -84 -228 -86z" />
<glyph unicode="&#xef;" horiz-adv-x="301" vert-adv-y="2458" d="M94 0l217 1026h119l-217 -1026h-119zM207 1230q0 31 23 54q25 25 57 25q26 0 43 -20q13 -15 13 -34q0 -28 -26 -52q-26 -25 -57 -25q-53 0 -53 52zM490 1230q0 31 23 54q25 25 56 25q54 0 54 -54q0 -22 -18 -44q-26 -33 -63 -33q-52 0 -52 52z" />
<glyph unicode="&#xf0;" horiz-adv-x="1174" vert-adv-y="2458" d="M150 394q0 256 201 450q196 190 446 190q80 0 152 -30l-107 233l-166 -100l-48 96l169 104l-69 146l123 67l63 -139l168 105l49 -99l-172 -106l207 -453q60 -131 60 -237q0 -155 -86 -303q-95 -164 -261 -255q-144 -79 -302 -79q-191 0 -310 115q-117 114 -117 295z M278 420q0 -148 101 -235q89 -76 225 -76q208 0 357 157q138 146 138 333q0 147 -101 234q-88 76 -227 76q-202 0 -356 -164q-137 -145 -137 -325z" />
<glyph unicode="&#xf1;" horiz-adv-x="1016" vert-adv-y="2458" d="M88 0l217 1024l121 -2l-25 -115q154 133 326 133q153 0 251 -96q94 -91 94 -227q0 -38 -9 -82l-133 -635h-119l131 625q7 33 7 61q0 108 -80 177q-68 58 -168 58q-133 0 -234 -82q-98 -78 -125 -208l-133 -631h-121zM438 1292q102 109 211 109q52 0 147 -36 q90 -34 142 -34q71 0 162 72l32 -49q-97 -113 -203 -113q-52 0 -152 38q-96 36 -145 36q-64 0 -163 -74z" />
<glyph unicode="&#xf2;" horiz-adv-x="1200" vert-adv-y="2458" d="M166 401q0 251 203 447q199 192 454 192q183 0 303 -116q121 -118 121 -302q0 -248 -203 -445q-199 -193 -448 -193q-189 0 -309 117q-121 117 -121 300zM290 425q0 -152 106 -243q90 -77 225 -77q208 0 364 166q139 148 139 328q0 152 -106 243q-89 77 -227 77 q-209 0 -366 -169q-135 -145 -135 -325zM652 1300l55 82l369 -163l-56 -84z" />
<glyph unicode="&#xf3;" horiz-adv-x="1200" vert-adv-y="2458" d="M166 401q0 251 203 447q199 192 454 192q183 0 303 -116q121 -118 121 -302q0 -248 -203 -445q-199 -193 -448 -193q-189 0 -309 117q-121 117 -121 300zM290 425q0 -152 106 -243q90 -77 225 -77q208 0 364 166q139 148 139 328q0 152 -106 243q-89 77 -227 77 q-209 0 -366 -169q-135 -145 -135 -325zM635 1219l438 163l19 -82l-439 -165z" />
<glyph unicode="&#xf4;" horiz-adv-x="1200" vert-adv-y="2458" d="M166 401q0 251 203 447q199 192 454 192q183 0 303 -116q121 -118 121 -302q0 -248 -203 -445q-199 -193 -448 -193q-189 0 -309 117q-121 117 -121 300zM290 425q0 -152 106 -243q90 -77 225 -77q208 0 364 166q139 148 139 328q0 152 -106 243q-89 77 -227 77 q-209 0 -366 -169q-135 -145 -135 -325zM633 1155l23 90l225 88l188 -86l-16 -90q-27 1 -193 84q-200 -85 -227 -86z" />
<glyph unicode="&#xf5;" horiz-adv-x="1200" vert-adv-y="2458" d="M166 401q0 251 203 447q199 192 454 192q183 0 303 -116q121 -118 121 -302q0 -248 -203 -445q-199 -193 -448 -193q-189 0 -309 117q-121 117 -121 300zM290 425q0 -152 106 -243q90 -77 225 -77q208 0 364 166q139 148 139 328q0 152 -106 243q-89 77 -227 77 q-209 0 -366 -169q-135 -145 -135 -325zM529 1292q101 109 210 109q53 0 147 -36q91 -34 142 -34q72 0 162 72l33 -49q-98 -113 -204 -113q-52 0 -152 38q-96 36 -144 36q-65 0 -164 -74z" />
<glyph unicode="&#xf6;" horiz-adv-x="1200" vert-adv-y="2458" d="M166 401q0 251 203 447q199 192 454 192q183 0 303 -116q121 -118 121 -302q0 -248 -203 -445q-199 -193 -448 -193q-189 0 -309 117q-121 117 -121 300zM290 425q0 -152 106 -243q90 -77 225 -77q208 0 364 166q139 148 139 328q0 152 -106 243q-89 77 -227 77 q-209 0 -366 -169q-135 -145 -135 -325zM652 1230q0 31 23 54q25 25 57 25q26 0 43 -20q13 -15 13 -34q0 -28 -26 -52q-26 -25 -57 -25q-53 0 -53 52zM935 1230q0 31 23 54q25 25 56 25q54 0 54 -53q0 -23 -18 -45q-26 -33 -63 -33q-52 0 -52 52z" />
<glyph unicode="&#xf7;" horiz-adv-x="1032" vert-adv-y="2458" d="M143 475l20 96h942l-20 -96h-942zM499 244q0 29 25 51q25 24 57 24q51 0 51 -48q0 -29 -24 -53q-24 -25 -56 -25q-53 0 -53 51zM616 788q0 33 27 56q24 20 53 20q52 0 52 -51q0 -28 -26 -53q-25 -23 -53 -23q-53 0 -53 51z" />
<glyph unicode="&#xf8;" horiz-adv-x="1186" vert-adv-y="2458" d="M158 400q0 252 203 448q198 192 451 192q43 0 92 -10l49 96h94l-61 -118q253 -116 253 -386q0 -248 -203 -445q-198 -193 -445 -193q-45 0 -113 14l-55 -106l-93 1l66 127q-238 122 -238 380zM283 423q0 -193 172 -284l393 776q-6 1 -18 2q-20 2 -45 2q-208 0 -365 -168 q-137 -145 -137 -328zM535 113q37 -8 80 -8q207 0 364 166q139 148 139 328q0 202 -190 294z" />
<glyph unicode="&#xf9;" horiz-adv-x="1010" vert-adv-y="2458" d="M152 312q0 40 8 79l136 631h120l-133 -621q-6 -29 -6 -59q0 -111 79 -179q67 -58 168 -58q135 0 238 84q94 77 121 204l136 629h118l-217 -1022h-116l24 119q-156 -135 -332 -135q-149 0 -247 94q-97 93 -97 234zM556 1300l55 82l369 -163l-56 -84z" />
<glyph unicode="&#xfa;" horiz-adv-x="1010" vert-adv-y="2458" d="M152 312q0 40 8 79l136 631h120l-133 -621q-6 -29 -6 -59q0 -111 79 -179q67 -58 168 -58q135 0 238 84q94 77 121 204l136 629h118l-217 -1022h-116l24 119q-156 -135 -332 -135q-149 0 -247 94q-97 93 -97 234zM539 1219l438 163l19 -82l-438 -165z" />
<glyph unicode="&#xfb;" horiz-adv-x="1010" vert-adv-y="2458" d="M152 312q0 40 8 79l136 631h120l-133 -621q-6 -29 -6 -59q0 -111 79 -179q67 -58 168 -58q135 0 238 84q94 77 121 204l136 629h118l-217 -1022h-116l24 119q-156 -135 -332 -135q-149 0 -247 94q-97 93 -97 234zM535 1155l23 90l225 88l188 -86l-16 -90q-27 1 -192 84 q-199 -84 -228 -86z" />
<glyph unicode="&#xfc;" horiz-adv-x="1010" vert-adv-y="2458" d="M152 312q0 40 8 79l136 631h120l-133 -621q-6 -29 -6 -59q0 -111 79 -179q67 -58 168 -58q135 0 238 84q94 77 121 204l136 629h118l-217 -1022h-116l24 119q-156 -135 -332 -135q-149 0 -247 94q-97 93 -97 234zM556 1230q0 31 23 54q25 25 57 25q26 0 43 -20 q13 -15 13 -34q0 -28 -26 -52q-26 -25 -57 -25q-53 0 -53 52zM839 1230q0 31 22 54q26 25 57 25q54 0 54 -54q0 -22 -18 -44q-25 -33 -63 -33q-52 0 -52 52z" />
<glyph unicode="&#xfd;" horiz-adv-x="895" vert-adv-y="2458" d="M144 -422l243 426l-144 1020h131l113 -842l477 844h129l-823 -1448h-126zM483 1219l438 163l19 -82l-439 -165z" />
<glyph unicode="&#xfe;" horiz-adv-x="1214" vert-adv-y="2458" d="M0 -412l393 1848h121l-129 -598q204 202 449 202q188 0 309 -117t121 -300q0 -248 -197 -441q-201 -196 -456 -196q-249 0 -363 202l-127 -600h-121zM306 426q0 -152 106 -244q89 -77 224 -77q213 0 370 169q135 145 135 325q0 152 -106 243q-90 77 -228 77 q-205 0 -362 -166q-139 -148 -139 -327z" />
<glyph unicode="&#xff;" horiz-adv-x="895" vert-adv-y="2458" d="M144 -422l243 426l-144 1020h131l113 -842l477 844h129l-823 -1448h-126zM502 1230q0 31 23 54q25 25 56 25q27 0 43 -20q13 -15 13 -34q0 -28 -26 -52q-25 -25 -57 -25q-52 0 -52 52zM784 1230q0 31 23 54q25 25 57 25q54 0 54 -54q0 -22 -18 -44q-26 -33 -64 -33 q-52 0 -52 52z" />
<glyph unicode="&#x152;" horiz-adv-x="2329" vert-adv-y="2458" d="M215 603q0 226 126 441q148 251 407 392q214 116 436 116q411 0 582 -360l74 344h729l-27 -125h-603l-118 -551h605l-27 -125h-605l-130 -610h604l-25 -125h-729l72 342q-323 -358 -734 -358q-323 0 -503 224q-134 166 -134 395zM343 634q0 -195 113 -336 q153 -189 422 -189q208 0 402 118q213 130 325 344q86 166 86 336q0 193 -112 333q-150 187 -426 187q-203 0 -398 -119q-228 -139 -340 -371q-72 -151 -72 -303z" />
<glyph unicode="&#x153;" horiz-adv-x="2056" vert-adv-y="2458" d="M164 400q0 252 202 448q199 192 450 192q305 0 409 -284q213 284 517 284q169 0 271 -100q110 -107 110 -286q0 -81 -21 -161q-6 -24 -9 -35h-864q-1 -29 -1 -43q0 -121 78 -207q94 -103 257 -103q187 0 367 118l28 -98q-203 -141 -419 -141q-317 0 -416 286 q-222 -286 -529 -286q-218 0 -340 151q-90 111 -90 265zM287 424q0 -119 69 -204q94 -115 262 -115q208 0 365 166q139 147 139 328q0 119 -69 205q-93 115 -264 115q-210 0 -367 -169q-135 -146 -135 -326zM1254 567h739q6 48 6 78q0 131 -96 212q-74 62 -187 62 q-190 0 -337 -149q-78 -78 -125 -203z" />
<glyph unicode="&#x178;" horiz-adv-x="1012" vert-adv-y="2458" d="M354 1536h135l170 -809l514 809h136l-623 -979l-117 -557h-125l117 557zM645 1639q0 31 23 54q25 25 57 25q26 0 43 -20q13 -15 13 -34q0 -28 -26 -52q-25 -25 -57 -25q-53 0 -53 52zM928 1639q0 31 23 54q25 25 57 25q54 0 54 -54q0 -21 -18 -44q-26 -33 -64 -33 q-52 0 -52 52z" />
<glyph unicode="&#x2c6;" horiz-adv-x="582" vert-adv-y="2458" d="M324 1155l23 90l225 88l188 -86l-16 -90q-27 1 -193 84q-199 -84 -227 -86z" />
<glyph unicode="&#x2dc;" horiz-adv-x="842" vert-adv-y="2458" d="M352 1292q102 109 211 109q52 0 147 -36q90 -34 141 -34q72 0 163 72l32 -49q-98 -113 -203 -113q-52 0 -152 38q-96 36 -145 36q-64 0 -163 -74z" />
<glyph unicode="&#x2000;" horiz-adv-x="906" vert-adv-y="0" />
<glyph unicode="&#x2001;" horiz-adv-x="1812" vert-adv-y="0" />
<glyph unicode="&#x2002;" horiz-adv-x="906" vert-adv-y="0" />
<glyph unicode="&#x2003;" horiz-adv-x="1812" vert-adv-y="0" />
<glyph unicode="&#x2004;" horiz-adv-x="604" vert-adv-y="0" />
<glyph unicode="&#x2005;" horiz-adv-x="453" vert-adv-y="0" />
<glyph unicode="&#x2006;" horiz-adv-x="302" vert-adv-y="0" />
<glyph unicode="&#x2007;" horiz-adv-x="302" vert-adv-y="0" />
<glyph unicode="&#x2008;" horiz-adv-x="226" vert-adv-y="0" />
<glyph unicode="&#x2009;" horiz-adv-x="362" vert-adv-y="0" />
<glyph unicode="&#x200a;" horiz-adv-x="100" vert-adv-y="0" />
<glyph unicode="&#x2010;" horiz-adv-x="807" vert-adv-y="2458" d="M207 549l23 100h622l-22 -100h-623z" />
<glyph unicode="&#x2011;" horiz-adv-x="807" vert-adv-y="2458" d="M207 549l23 100h622l-22 -100h-623z" />
<glyph unicode="&#x2012;" horiz-adv-x="807" vert-adv-y="2458" d="M207 549l23 100h622l-22 -100h-623z" />
<glyph unicode="&#x2013;" horiz-adv-x="1167" vert-adv-y="2458" d="M201 533l21 100h991l-21 -100h-991z" />
<glyph unicode="&#x2014;" horiz-adv-x="1530" vert-adv-y="2458" d="M201 533l21 100h1351l-20 -100h-1352z" />
<glyph unicode="&#x2018;" horiz-adv-x="240" vert-adv-y="2458" d="M360 1526l123 12l-74 -397l-39 2z" />
<glyph unicode="&#x2019;" horiz-adv-x="270" vert-adv-y="2458" d="M317 1141l94 397l119 -12l-174 -383z" />
<glyph unicode="&#x201a;" horiz-adv-x="270" vert-adv-y="2458" d="M41 -160l94 396l119 -13l-174 -381z" />
<glyph unicode="&#x201c;" horiz-adv-x="492" vert-adv-y="2458" d="M389 1526l123 12l-74 -397l-39 2zM602 1526l123 12l-72 -397l-41 2z" />
<glyph unicode="&#x201d;" horiz-adv-x="504" vert-adv-y="2458" d="M328 1141l94 397l119 -12l-174 -383zM541 1141l96 397l119 -12l-174 -383z" />
<glyph unicode="&#x201e;" horiz-adv-x="504" vert-adv-y="2458" d="M51 -160l94 396l119 -13l-174 -381zM264 -160l96 396l119 -13l-174 -381z" />
<glyph unicode="&#x2022;" horiz-adv-x="449" vert-adv-y="2458" d="M197 583q0 70 59 127q58 56 130 56q51 0 86 -34q35 -35 35 -86q0 -72 -59 -129q-56 -54 -127 -54q-55 0 -90 34q-34 33 -34 86z" />
<glyph unicode="&#x2026;" horiz-adv-x="1174" vert-adv-y="2458" d="M113 45q0 34 28 58q24 20 54 20q25 0 41 -20q13 -15 13 -34q0 -21 -17 -43q-27 -34 -65 -34q-54 0 -54 53zM529 45q0 34 28 58q24 20 53 20q54 0 54 -53q0 -23 -18 -45q-26 -33 -63 -33q-54 0 -54 53zM949 44q0 31 23 54q24 25 56 25q27 0 43 -20q13 -15 13 -34 q0 -28 -26 -52q-25 -25 -57 -25q-52 0 -52 52z" />
<glyph unicode="&#x202f;" horiz-adv-x="362" vert-adv-y="0" />
<glyph unicode="&#x2039;" horiz-adv-x="449" vert-adv-y="2458" d="M147 555l346 404l70 -58l-297 -346l149 -346l-94 -57z" />
<glyph unicode="&#x203a;" horiz-adv-x="477" vert-adv-y="2458" d="M96 209l297 346l-149 347l96 56l172 -403l-344 -403z" />
<glyph unicode="&#x205f;" horiz-adv-x="453" vert-adv-y="0" />
<glyph unicode="&#x20ac;" horiz-adv-x="1176" vert-adv-y="2458" d="M188 590l20 100h113l31 146h-113l23 100h112l29 141q39 191 215 333q171 138 362 138q164 0 271 -105q93 -91 102 -249l-125 -41q-24 107 -59 162q-68 106 -213 106q-144 0 -270 -102q-129 -105 -158 -244l-29 -139h615l-23 -100h-614l-31 -146h614l-20 -100h-614 l-29 -133q-7 -32 -7 -65q0 -103 62 -180q83 -103 225 -103q154 0 277 110q67 60 108 156q55 -24 105 -45q-65 -135 -169 -218q-160 -126 -348 -126q-194 0 -306 139q-82 101 -82 238q0 48 10 94l29 133h-113z" />
<glyph unicode="&#x2122;" horiz-adv-x="1298" vert-adv-y="2458" d="M336 1473l14 63h490l-15 -63h-213l-151 -704h-62l150 704h-213zM745 768l164 768h80l107 -655l387 655h80l-164 -768h-62l140 651l-381 -651h-47l-103 651l-139 -651h-62z" />
<glyph unicode="&#x25fc;" horiz-adv-x="1025" vert-adv-y="2050" d="M0 0v1025h1025v-1025h-1025z" />
</font>
</defs>
</svg>
